# xmcd
#
# Track frame offsets:
#	150
#	20700
#	32076
#	53496
#	74409
#	87595
#	105818
#	121868
#	140342
#	159917
#	179778
#	198587
#
# Disc length: 2929 seconds
#
# Revision: 0
# Processed by: cddbd v1.4PL0 Copyright (c) Steve Scherf et al.
# Submitted via: audiograbber 1.81.01
#
DISCID=a00b6f0c
DTITLE=Garth Brooks - Scarecrow
DYEAR=2001
DGENRE=Country
TTITLE0=Why Ain't I Running
TTITLE1=Beer Run
TTITLE2=Wrapped Up In You
TTITLE3=The Storm
TTITLE4=Thicker Than Blood
TTITLE5=Big Money
TTITLE6=Squeeze Me In
TTITLE7=Mr. Midnight
TTITLE8=Pushing Up Daisies
TTITLE9=Rodeo Or Mexico
TTITLE10=When You Com Back To Me Again
TTITLE11=Don't Cross The River
EXTD=YEAR: 2001 ID3G: 2
EXTT0=
EXTT1=
EXTT2=
EXTT3=
EXTT4=
EXTT5=
EXTT6=
EXTT7=
EXTT8=
EXTT9=
EXTT10=
EXTT11=
PLAYORDER=
